<?xml version="1.0" encoding="UTF-8"?>
<svg id="_Слой_1" data-name="Слой 1" xmlns="http://www.w3.org/2000/svg" viewBox="0 0 23.96 24">
  <defs>
    <style>
      .cls-1 {
        fill: #8a2be2;
      }
    </style>
  </defs>
  <path class="cls-1" d="M11.96,0C5.66,0,.49,4.86,0,11.04l6.43,2.66c.55-.37,1.2-.59,1.91-.59,.06,0,.12,0,.19,0l2.86-4.14v-.06c0-2.49,2.03-4.52,4.52-4.52s4.52,2.03,4.52,4.53-2.03,4.52-4.52,4.52h-.1l-4.08,2.91c0,.05,0,.1,0,.16,0,1.88-1.52,3.4-3.39,3.4-1.64,0-3.02-1.17-3.33-2.73L.41,15.27c1.43,5.04,6.05,8.73,11.54,8.73,6.63,0,12-5.37,12-12S18.58,0,11.96,0ZM7.52,18.21l-1.47-.61c.26,.54,.71,1,1.31,1.25,1.3,.54,2.79-.08,3.33-1.38,.26-.63,.26-1.32,0-1.95s-.75-1.12-1.38-1.38c-.62-.26-1.29-.25-1.88-.03l1.52,.63c.96,.4,1.41,1.5,1.01,2.45-.4,.96-1.5,1.41-2.45,1.01,0,0,0,0,0,0Zm11.41-9.3c0-1.66-1.35-3.02-3.02-3.02s-3.02,1.35-3.02,3.02,1.35,3.02,3.02,3.02,3.02-1.35,3.02-3.02Zm-5.27,0c0-1.25,1.01-2.27,2.27-2.27s2.27,1.01,2.27,2.27-1.02,2.27-2.27,2.27-2.27-1.01-2.27-2.27Z"/>
</svg>