<?xml version="1.0" encoding="UTF-8"?>
<svg id="_Слой_1" data-name="Слой 1" xmlns="http://www.w3.org/2000/svg" viewBox="0 0 24 24">
  <defs>
    <style>
      .cls-1 {
        fill: #8a2be2;
      }
    </style>
  </defs>
  <path class="cls-1" d="M15.68,0h-7.37C1.59,0,0,1.59,0,8.32v7.37c0,6.72,1.59,8.32,8.32,8.32h7.37c6.72,0,8.32-1.59,8.32-8.32v-7.37C24,1.59,22.39,0,15.68,0Zm3.69,17.12h-1.74c-.66,0-.86-.52-2.05-1.73-1.03-1-1.49-1.14-1.74-1.14-.36,0-.46,.1-.46,.59v1.57c0,.42-.14,.68-1.25,.68-1.85,0-3.9-1.12-5.34-3.2-2.17-3.05-2.76-5.33-2.76-5.81,0-.25,.1-.49,.59-.49h1.74c.44,0,.61,.2,.78,.68,.86,2.49,2.3,4.68,2.9,4.68,.22,0,.32-.1,.32-.66v-2.58c-.07-1.19-.69-1.29-.69-1.71,0-.2,.17-.41,.44-.41h2.74c.37,0,.51,.2,.51,.64v3.47c0,.37,.17,.51,.27,.51,.22,0,.41-.14,.81-.54,1.25-1.41,2.15-3.57,2.15-3.57,.12-.25,.32-.49,.76-.49h1.74c.52,0,.64,.27,.52,.64-.22,1.02-2.35,4.03-2.35,4.03-.19,.31-.25,.44,0,.78,.19,.25,.8,.78,1.2,1.25,.75,.85,1.32,1.56,1.47,2.05,.17,.49-.08,.74-.58,.74h0Z"/>
</svg>